<svg xmlns="http://www.w3.org/2000/svg" xmlns:xlink="http://www.w3.org/1999/xlink" version="1.0" x="0px" y="0px" viewBox="0 0 100 125" enable-background="new 0 0 100 100" xml:space="preserve"><path d="M51.0254631,29.3557434c0,0-1.2267456,12.4756088,13.14291,27.6280518c0,0-11.0131493,3.1365929-19.1357231-5.7893829  S46.0401688,31.8586979,51.0254631,29.3557434z"/><path d="M67.6157455,14.3170185c0,0-59.6327057,21.7175846-61.825798,2.8405666S27.4060822,15.3923454,67.6157455,14.3170185z"/><path d="M32.2514839,34.5309753c0,0-7.180151,23.0299377,21.085537,35.9016266c0,0-18.7909279,6.4722595-29.80299-8.5655403  S32.2514839,34.5309753,32.2514839,34.5309753z"/><path d="M73.2282867,26.9944096c0,0,6.8815079-10.1603012,14.3704453-7.2621727s7.2944412,11.0062771,5.2237549,15.9991283  c-2.0706787,4.9928551-10.6577454,9.3022194-16.9742813,2.591423S73.2282867,26.9944096,73.2282867,26.9944096z"/><path d="M79.1444473,50.3252487c0,0-20.7322273,34.5444946-14.0666122,42.4334183  c6.6656036,7.888916,18.8865051-8.5371704,17.736618-17.7953339C81.6645737,65.7051697,79.7794571,57.1846695,79.1444473,50.3252487  z"/><text x="0" y="115" fill="#000000" font-size="5px" font-weight="bold" font-family="'Helvetica Neue', Helvetica, Arial-Unicode, Arial, Sans-serif">Created by Alex Tai</text><text x="0" y="120" fill="#000000" font-size="5px" font-weight="bold" font-family="'Helvetica Neue', Helvetica, Arial-Unicode, Arial, Sans-serif">from the Noun Project</text></svg>